HIERARCHY
ROOT Hips
{
  OFFSET 0 0 0
  CHANNELS 6 Xposition Yposition Zposition Zrotation Yrotation Xrotation
  JOINT LeftThigh
  {
    OFFSET 8.409438 0 -5.917753
    CHANNELS 3 Zrotation Yrotation Xrotation
    JOINT LeftLeg
    {
      OFFSET 0 0 -42.358652
      CHANNELS 3 Zrotation Yrotation Xrotation
      JOINT LeftFoot
      {
        OFFSET 0 0 -39.357303
        CHANNELS 3 Zrotation Yrotation Xrotation
      }
    }
  }
  JOINT RightThigh
  {
    OFFSET -8.409438 0 -5.917753
    CHANNELS 3 Zrotation Yrotation Xrotation
    JOINT RightLeg
    {
      OFFSET 0 0 -42.358652
      CHANNELS 3 Zrotation Yrotation Xrotation
      JOINT RightFoot
      {
        OFFSET 0 0 -39.357303
        CHANNELS 3 Zrotation Yrotation Xrotation
      }
    }
  }
  JOINT SpineLow
  {
    OFFSET 0 0 4.719101
    CHANNELS 3 Zrotation Yrotation Xrotation
    JOINT SpineMid
    {
      OFFSET 0 0 12.899191
      CHANNELS 3 Zrotation Yrotation Xrotation
      JOINT Chest
      {
        OFFSET 0 0 12.899191
        CHANNELS 3 Zrotation Yrotation Xrotation
        JOINT LeftShoulder
        {
          OFFSET 7.550562 1.41573 9.438202
          CHANNELS 3 Zrotation Yrotation Xrotation
          JOINT LeftArm
          {
            OFFSET 9.155056 0 4.247191
            CHANNELS 3 Zrotation Yrotation Xrotation
            JOINT LeftForearm
            {
              OFFSET 0 0 25.771955
              CHANNELS 3 Zrotation Yrotation Xrotation
              JOINT LeftHand
              {
                OFFSET 0 0 25.197169
                CHANNELS 3 Zrotation Yrotation Xrotation
              }
            }
          }
        }
        JOINT RightShoulder
        {
          OFFSET -7.550562 1.41573 9.438202
          CHANNELS 3 Zrotation Yrotation Xrotation
          JOINT RightArm
          {
            OFFSET -9.155056 0 4.247191
            CHANNELS 3 Zrotation Yrotation Xrotation
            JOINT RightForearm
            {
              OFFSET 0 0 -25.771955
              CHANNELS 3 Zrotation Yrotation Xrotation
              JOINT RightHand
              {
                OFFSET 0 0 -25.197169
                CHANNELS 3 Zrotation Yrotation Xrotation
              }
            }
          }
        }
        JOINT Neck
        {
          OFFSET 0 0 15.101124
          CHANNELS 3 Zrotation Yrotation Xrotation
          JOINT Head
          {
            OFFSET 0 0 11.325843
            CHANNELS 3 Zrotation Yrotation Xrotation
            End Site
            {
              OFFSET 0 0 14.157303
            }
          }
        }
      }
    }
  }
}
MOTION
Frames: 7
Frame Time: 0.0
0.0  101.685394  0.0  1.025778  14.68013  -97.929575  11.120711  -23.153735  2.30274  -10.720223  16.624608  21.779796  -1.943916  3.027925  1.603256  -14.857363  13.229191  -1.612062  1.404838  3.570449  21.273532  -0.348964  2.572706  -1.867911  0.879  -0.302997  3.108967  2.359334  -0.939374  8.486266  2.359334  -0.939374  8.486266  -7.225289  19.952102  6.771898  149.558399  19.941725  170.166899  -26.068375  23.985865  91.855311  34.233497  -29.892926  7.980189  15.881433  -4.224283  5.258569  116.06934  40.718613  31.05429  -24.385502  -27.122204  -105.529149  53.249131  14.235291  13.408764  -2.796933  -0.487523  -2.233127  -2.099502  -0.355437  -1.677108  
0.0  101.685394  0.0  1.08267  15.83928  -97.794591  10.731849  -23.012329  2.129049  -11.125364  16.637272  21.48165  -2.089017  3.008269  1.568824  -15.147131  13.374111  -1.383643  0.897567  3.626056  21.032044  -0.585475  2.602054  -1.892886  0.931687  -0.278723  3.078014  2.506632  -0.878748  8.40172  2.506633  -0.878748  8.40172  -8.28755  19.918718  6.779842  149.446306  20.060662  169.805923  -26.109254  24.110234  91.882683  34.320569  -29.826408  7.822355  16.165015  -4.494718  5.163567  118.077899  41.352157  31.222079  -24.236409  -27.223031  -106.900602  52.212274  14.329869  13.998868  -3.497959  -0.677563  -2.191519  -2.625908  -0.495656  -1.647562  
0.0  101.685394  0.0  1.140671  16.939311  -97.702024  10.32094  -22.842581  1.961635  -11.561656  16.659711  21.179847  -2.133407  2.993762  1.572344  -15.242357  13.513072  -1.048246  0.416459  3.663343  20.793038  -0.943875  2.606949  -1.939772  1.018196  -0.255184  3.056261  2.745946  -0.824614  8.341931  2.745946  -0.824614  8.34193  -9.378201  19.951306  6.841069  149.516626  20.215346  169.389948  -25.930254  24.133702  92.059268  34.363568  -29.679441  7.771376  16.252215  -4.830522  4.870825  120.189123  41.742869  31.585495  -24.891816  -27.143347  -107.057041  50.73402  14.64771  13.411276  -4.33779  -0.879922  -2.165536  -3.256445  -0.644619  -1.630463  
0.0  101.685394  0.0  1.201645  18.137469  -97.568774  9.920734  -22.708598  1.8014  -12.01581  16.680968  20.856726  -2.250028  2.972209  1.539901  -15.590275  13.670613  -0.80258  -0.13269  3.722242  20.521918  -1.161775  2.613614  -1.972603  1.076596  -0.227769  3.017328  2.909232  -0.755484  8.23587  2.909232  -0.755484  8.235871  -10.380714  19.950942  6.918929  149.240703  20.401365  168.926728  -25.947299  24.189082  92.136526  34.451436  -29.675561  7.641314  16.640482  -5.147893  4.806675  122.212825  42.256406  32.246686  -24.969969  -26.997147  -108.225496  49.695898  14.686335  13.640881  -5.099685  -1.106675  -2.084876  -3.828473  -0.812687  -1.572974  
0.0  101.685394  0.0  1.263784  19.304426  -97.457816  9.414824  -22.540554  1.609195  -12.478154  16.722367  20.524879  -2.257512  2.960794  1.558959  -15.704148  13.815104  -0.440496  -0.694141  3.775804  20.255522  -1.523509  2.584451  -2.041952  1.171492  -0.208872  2.980757  3.170963  -0.713991  8.135571  3.170963  -0.713991  8.13557  -11.524427  20.007542  6.993755  149.256772  20.527959  168.435948  -25.648625  24.128832  92.392312  34.529609  -29.626489  7.528018  16.66881  -5.469714  4.684975  124.438172  42.61419  33.008486  -25.192573  -26.757563  -109.193223  48.609549  14.707908  13.769119  -6.011687  -1.336834  -1.99708  -4.512987  -0.983106  -1.511068  
0.0  101.685394  0.0  1.33546  20.544523  -97.329659  8.947579  -22.407253  1.475531  -12.905349  16.746041  20.203622  -2.372606  2.938758  1.532742  -16.099478  13.987386  -0.164833  -1.356293  3.859422  19.941586  -1.678631  2.582403  -2.083301  1.23635  -0.18853  2.930045  3.351022  -0.663911  7.997183  3.351022  -0.663911  7.997183  -12.400712  20.096039  7.209091  148.862036  20.793412  167.970386  -25.617221  24.135193  92.468822  34.613024  -29.609892  7.410265  17.01132  -5.739321  4.813058  126.502961  43.14231  33.949631  -25.399666  -26.577545  -110.052863  47.566712  14.734045  13.873827  -6.840982  -1.548583  -1.834359  -5.135127  -1.141086  -1.393231  
0.0  101.685394  0.0  1.413186  21.751204  -97.228759  8.368909  -22.21809  1.277157  -13.348692  16.78052  19.89877  -2.372096  2.94448  1.566453  -16.28494  14.156228  0.230237  -2.101915  3.94843  19.600587  -1.921867  2.548439  -2.146286  1.369491  -0.18338  2.924808  3.715033  -0.665639  7.98158  3.715033  -0.665639  7.981579  -13.89402  20.16591  7.148182  148.657494  20.972944  167.569075  -25.658088  24.067484  92.57687  34.701398  -29.488044  7.377492  17.03759  -5.950776  4.732677  128.588112  43.56708  35.061308  -26.844933  -26.269851  -109.161878  45.715259  14.887658  12.540325  -7.913843  -1.754557  -1.807803  -5.94017  -1.292779  -1.378748  
